<svg xmlns="http://www.w3.org/2000/svg" width="70" height="43" viewBox="0 0 70 43">
    <g fill="none" fill-rule="evenodd">
        <g fill-rule="nonzero">
            <g>
                <g>
                    <path fill="#007CC9" d="M7.208 3.343c.391-.205.605-.568.605-1.033V1.74c0-.614-.251-1.639-1.927-1.639H.046v6.976H5.98c1.266 0 1.872-.615 1.872-1.574v-.792c0-.717-.075-1.173-.643-1.369zM6.593 2.3c0 .28-.083.652-.828.652h-4.49V1.155h4.536c.13 0 .782.028.782.54V2.3zM1.276 4.014h4.246c.876 0 1.118.167 1.118.791v.475c0 .438-.168.727-.978.727H1.276V4.014zM9.192.094H10.3v6.974H9.192V.093zm7.506 1.964h1.108v5.01h-1.062v-.437c-.382.41-.968.512-1.75.512H13.81c-1.835 0-2.105-1.1-2.105-1.751V2.058h1.108v3.138c0 .587.112.978 1.565.978h.205c1.909 0 2.104-.39 2.104-1.294V2.058h.01zm5.932-.065h-1.267c-1.22 0-2.458.242-2.458 2.058v1.024c0 1.844 1.266 2.077 2.365 2.077h1.434c1.174 0 2.524-.177 2.524-1.555v-.252h-1.099l-.01.15c-.037.568-.279.698-1.284.698h-1.08c-1.36 0-1.733-.252-1.733-1.183v-.13h5.206v-.69c0-1.936-1.313-2.197-2.598-2.197zm1.48 1.76v.149h-4.079c.084-.81.336-.95 1.444-.95h1.155c.68 0 1.48.14 1.48.801z" transform="translate(-1205 -47) translate(1205 47.512) translate(0 33.432)"/>
                    <path fill="#39F" d="M35.379 4.517h1.164v.614c0 1.248-.4 2.021-2.412 2.021h-3.4c-1.797 0-2.532-.764-2.532-2.654V2.682c0-1.881.735-2.654 2.533-2.654h3.445c1.025 0 2.245.317 2.245 1.816v.726h-1.108v-.465c0-.96-.513-1.025-1.36-1.025h-3.13c-.996 0-1.396.363-1.396 1.257v2.496c0 .894.41 1.257 1.397 1.257h3.148c1.2 0 1.396-.251 1.396-.996v-.577h.01zm7.282.372c0 .894-.195 1.295-2.104 1.295h-.205c-1.453 0-1.565-.392-1.565-.978V2.067H37.68v3.334c0 .652.27 1.751 2.105 1.751h1.182c.773 0 1.37-.093 1.751-.512v.438h1.052v-5.01h-1.108v2.821zm16.66-.708v.69h-5.215V5c0 .922.373 1.183 1.733 1.183h1.08c1.006 0 1.248-.13 1.285-.699l.01-.149h1.108v.252c0 1.378-1.35 1.555-2.524 1.555h-1.434c-1.1 0-2.366-.233-2.366-2.077V4.042c0-1.807 1.239-2.058 2.459-2.058h1.266c1.285.009 2.599.27 2.599 2.197zm-2.598-1.229H55.57c-1.109 0-1.36.14-1.444.95h4.079v-.149c0-.661-.81-.8-1.48-.8zm7.646-.96h-1.183c-.773 0-1.369.094-1.75.513v-.438h-1.062v5.01h1.108V4.257c0-.894.196-1.295 2.105-1.295h.205c1.452 0 1.564.392 1.564.978v3.139h1.108V3.744c.01-.662-.26-1.751-2.095-1.751zm3.101 1.035v2.477c0 1.09.67 1.639 1.993 1.639h.4v-.969h-.279c-.792 0-1.006-.214-1.006-.978v-2.17h1.295v-.968h-1.295V.95H67.47v2.077zM48.23 1.993h-.736c-.558 0-.987.149-1.294.438v-.364h-1.062v5.01h1.109V3.94c0-.475.279-.978 1.08-.978h.484c.15 0 .289 0 .41.01v-.978h.01zm3.977 0h-.736c-.559 0-.987.149-1.295.438v-.364h-1.061v5.01h1.108V3.94c0-.475.28-.978 1.08-.978h.485c.149 0 .288 0 .41.01v-.978h.009z" transform="translate(-1205 -47) translate(1205 47.512) translate(0 33.432)"/>
                </g>
                <g>
                    <path fill="#39F" d="M15.971 27.482c8.82 0 15.971-7.153 15.971-15.972 0-2.737-.698-5.308-1.9-7.57-.987-1.835-3.128-3.93-7.226-3.93H9.126C5.03.01 2.886 2.104 1.91 3.94.708 6.192.01 8.772.01 11.51 0 20.33 7.152 27.482 15.971 27.482z" transform="translate(-1205 -47) translate(1205 47.512) translate(18.812)"/>
                    <path fill="#FFF" d="M11.361 13.83H19.8c.568 0 1.033.465 1.033 1.033 0 .568-.465 1.034-1.033 1.034H11.36v-2.068zm0-2.683H19.8c.568 0 1.033-.465 1.033-1.033 0-.569-.465-1.034-1.033-1.034H11.36v2.067zm12.284 3.483v2.291c0 .95-.773 1.723-1.723 1.723H10.02c-.95 0-1.722-.773-1.722-1.723V8.055c0-.95.773-1.722 1.722-1.722h11.902c.95 0 1.723.773 1.723 1.722v1.91h2.067v-1.91c0-2.095-1.704-3.8-3.8-3.8H10.02c-2.095 0-3.8 1.705-3.8 3.8v8.866c0 2.095 1.705 3.8 3.8 3.8h11.902c2.095 0 3.8-1.705 3.8-3.8v-2.29h-2.077z" transform="translate(-1205 -47) translate(1205 47.512) translate(18.812)"/>
                </g>
            </g>
        </g>
    </g>
</svg>
