<svg xmlns="http://www.w3.org/2000/svg" width="275" height="38" viewBox="0 0 275 38">
    <g fill="none" fill-rule="evenodd">
        <g fill-rule="nonzero">
            <g>
                <g fill="#000">
                    <path d="M24.724 7.644c-2.27 0-4.778.955-7.406 2.866-1.075-1.91-2.986-2.866-5.494-2.866-2.388 0-4.777.836-7.166 2.628l-.597-2.628H0v20.902h5.016V14.57c1.672-1.91 3.345-2.747 4.897-2.747 1.792 0 2.867 1.195 2.867 3.583v13.139h5.255V14.57c1.672-1.791 3.344-2.747 4.897-2.747 1.911 0 2.986 1.075 2.986 3.464v13.258h5.255v-13.02c0-5.254-2.03-7.882-6.45-7.882zm20.901-.239c-7.047 0-10.39 3.583-10.39 10.63.118 7.047 3.582 10.63 10.39 10.63 7.047 0 10.391-3.583 10.391-10.63 0-7.047-3.464-10.63-10.39-10.63zm0 17.08c-3.464 0-5.136-2.03-5.255-6.57 0-4.3 1.791-6.33 5.255-6.33 3.583 0 5.255 2.27 5.255 6.33 0 4.3-1.91 6.57-5.255 6.57zM63.9 4.18h-4.06v18.633c0 3.702 1.671 5.494 5.135 5.494h4.3v-4.061h-1.672c-1.553 0-2.509-.956-2.509-2.986v-9.555h4.3V7.644h-4.777l-.717-3.464zm18.632 3.225c-7.047 0-10.39 3.583-10.39 10.63 0 7.047 3.463 10.63 10.39 10.63 6.928 0 10.391-3.583 10.391-10.63 0-7.047-3.344-10.63-10.39-10.63zm0 17.08c-3.583 0-5.255-2.03-5.255-6.57 0-4.3 1.792-6.33 5.255-6.33 3.583 0 5.256 2.27 5.256 6.33 0 4.3-1.792 6.57-5.256 6.57zm18.513-16.841h-4.06v20.902h5.135V14.452c1.553-1.672 3.344-2.628 5.255-2.628v-4.18c-2.03 0-3.941.836-5.733 2.628l-.597-2.628zm21.857 0c-2.508 0-4.897.717-7.047 2.27V0H110.6v28.546h5.136V14.452c1.791-1.672 3.702-2.628 5.494-2.628 2.389 0 3.464 1.075 3.464 3.464v13.258h5.255V15.407c.12-5.135-2.27-7.763-7.047-7.763zm26.276 13.974c-1.791 1.672-3.702 2.628-5.494 2.628-2.388 0-3.463-1.075-3.463-3.464V7.644h-5.256v13.138c0 5.136 2.39 7.883 7.167 7.883 2.627 0 5.135-.956 7.644-2.747l.597 2.747h4.06V7.644h-5.135v13.974h-.12zM159.45 0h5.255v4.18h-5.255V0zm0 7.644h5.255v20.902h-5.255V7.644zm20.066 8.122h-3.345c-1.552 0-2.508-.597-2.508-1.911 0-1.434 1.433-2.27 4.3-2.27 2.747 0 5.136.478 7.524 1.314V8.6c-2.388-.836-4.777-1.194-7.405-1.194-6.091 0-9.196 2.27-9.196 6.57 0 4.18 2.03 6.21 6.21 6.21h3.703c1.433 0 2.27.597 2.27 1.91 0 1.434-1.076 2.27-3.345 2.27-3.105 0-5.614-.478-8.002-1.314v4.42c2.388.836 4.897 1.194 7.763 1.194 5.853 0 8.838-2.27 8.838-6.57.12-4.299-2.269-6.33-6.807-6.33z" transform="translate(-167 -48) translate(167 48) translate(88 .5)"/>
                </g>
                <path fill="#58727E" d="M1.95 31.795v-3.12c0-.338-.026-.572-.026-.572h.026s.572 1.248 2.145 1.248c1.69 0 2.925-1.352 2.925-3.419 0-2.028-1.092-3.432-2.847-3.432-1.729 0-2.262 1.3-2.262 1.3h-.026s.026-.22.026-.507v-.637h-.845v9.14h.884zm2.054-3.224c-1.352 0-2.08-1.313-2.08-2.626 0-1.859 1.027-2.639 2.119-2.639 1.222 0 2.067 1.027 2.067 2.626 0 1.664-.949 2.64-2.106 2.64zm7.696.78c1.911 0 3.458-1.482 3.458-3.458 0-1.937-1.547-3.393-3.458-3.393-1.911 0-3.458 1.456-3.458 3.393 0 1.976 1.547 3.458 3.458 3.458zm0-.793c-1.404 0-2.548-1.144-2.548-2.665 0-1.482 1.144-2.587 2.548-2.587 1.404 0 2.548 1.105 2.548 2.587 0 1.521-1.144 2.665-2.548 2.665zm7.436.637l1.599-4.654c.104-.325.195-.702.195-.702h.026s.091.377.208.702l1.599 4.654h.962l2.21-6.539h-.936l-1.586 4.875c-.104.325-.195.702-.195.702h-.026s-.091-.39-.195-.702l-1.612-4.849h-.871l-1.612 4.85c-.104.311-.195.701-.195.701h-.026s-.091-.39-.195-.702L16.9 22.656h-.936l2.21 6.54h.962zm11.05.156c1.469 0 2.418-.91 2.418-.91l-.403-.676s-.793.793-1.989.793c-1.352 0-2.496-.91-2.535-2.587h5.018s.026-.299.026-.455c0-1.625-.923-3.016-2.73-3.016-1.768 0-3.224 1.287-3.224 3.432 0 2.015 1.469 3.42 3.419 3.42zm1.638-4.108h-4.108c.208-1.313 1.157-2.002 2.249-2.002.975 0 1.807.637 1.859 2.002zm3.471 3.952V26.44c0-.416.052-.858.182-1.274.286-.962.975-1.69 1.898-1.69.169 0 .325.026.325.026v-.87s-.169-.04-.351-.04c-1.027 0-1.755.754-2.067 1.742h-.026s.026-.234.026-.52v-1.157h-.871v6.54h.884zm6.708.156c1.469 0 2.418-.91 2.418-.91l-.403-.676s-.793.793-1.989.793c-1.352 0-2.496-.91-2.535-2.587h5.018s.026-.299.026-.455c0-1.625-.923-3.016-2.73-3.016-1.768 0-3.224 1.287-3.224 3.432 0 2.015 1.469 3.42 3.419 3.42zm1.638-4.108h-4.108c.208-1.313 1.157-2.002 2.249-2.002.975 0 1.807.637 1.859 2.002zm5.005 4.108c1.716 0 2.249-1.313 2.249-1.313h.026s-.026.182-.026.468v.69h.858v-9.14h-.884v3.185c0 .273.026.494.026.494h-.026s-.546-1.235-2.132-1.235c-1.716 0-2.938 1.352-2.938 3.42 0 2.027 1.092 3.431 2.847 3.431zm.13-.793c-1.222 0-2.067-1.027-2.067-2.639 0-1.65.949-2.626 2.106-2.626 1.404 0 2.08 1.3 2.08 2.626 0 1.86-1.027 2.64-2.119 2.64zm11.609.793c1.716 0 2.951-1.352 2.951-3.419 0-2.028-1.092-3.432-2.847-3.432-1.677 0-2.223 1.261-2.223 1.261h-.026s.026-.234.026-.533v-3.172h-.884v9.14h.858v-.586c0-.312-.026-.533-.026-.533h.026s.585 1.274 2.145 1.274zm-.065-.78c-1.404 0-2.08-1.313-2.08-2.626 0-1.859 1.027-2.639 2.119-2.639 1.222 0 2.067 1.027 2.067 2.626 0 1.664-.949 2.64-2.106 2.64zm4.888 3.354c.871 0 1.547-.533 1.885-1.365l3.224-7.904h-.962l-1.885 4.771c-.13.325-.221.69-.221.69h-.026s-.104-.365-.234-.69l-1.924-4.77h-.975l2.73 6.486-.403.923c-.26.598-.663 1.066-1.235 1.066-.416 0-.78-.299-.78-.299l-.338.702s.468.39 1.144.39z" transform="translate(-167 -48) translate(167 48)"/>
            </g>
        </g>
    </g>
</svg>
